<svg xmlns="http://www.w3.org/2000/svg" xmlns:xlink="http://www.w3.org/1999/xlink" width="700" zoomAndPan="magnify" viewBox="0 0 525 525.000007" height="700" preserveAspectRatio="xMidYMid meet" version="1.0"><defs><clipPath id="52c5eb8cdc"><path d="M 0.5 0 L 524.5 0 L 524.5 524 L 0.5 524 Z M 0.5 0 " clip-rule="nonzero"/></clipPath></defs><path fill="#ffffff" d="M 262.5 203.929688 C 230.515625 203.929688 204.429688 230.015625 204.429688 262 C 204.429688 293.984375 230.515625 320.070312 262.5 320.070312 C 294.484375 320.070312 320.570312 293.984375 320.570312 262 C 320.570312 230.015625 294.484375 203.929688 262.5 203.929688 Z M 262.5 203.929688 " fill-opacity="1" fill-rule="nonzero"/><path fill="#ffffff" d="M 340.53125 119.546875 L 184.46875 119.546875 C 149.078125 119.546875 120.042969 148.355469 120.042969 183.96875 L 120.042969 340.035156 C 120.042969 375.421875 148.851562 404.457031 184.46875 404.457031 L 340.53125 404.457031 C 375.921875 404.457031 404.957031 375.648438 404.957031 340.035156 L 404.957031 183.96875 C 404.730469 148.355469 375.921875 119.546875 340.53125 119.546875 Z M 262.5 349.335938 C 214.183594 349.335938 174.941406 310.089844 174.941406 261.773438 C 174.941406 213.457031 214.183594 174.214844 262.5 174.214844 C 310.816406 174.214844 350.058594 213.457031 350.058594 261.773438 C 349.832031 310.089844 310.589844 349.335938 262.5 349.335938 Z M 356.183594 188.957031 C 344.617188 188.957031 335.089844 179.429688 335.089844 167.863281 C 335.089844 156.292969 344.617188 146.765625 356.183594 146.765625 C 367.753906 146.765625 377.28125 156.292969 377.28125 167.863281 C 377.28125 179.65625 367.980469 188.957031 356.183594 188.957031 Z M 356.183594 188.957031 " fill-opacity="1" fill-rule="nonzero"/><g clip-path="url(#52c5eb8cdc)"><path fill="#ffffff" d="M 262.5 0 C 117.777344 0 0.5 117.277344 0.5 262 C 0.5 406.726562 117.777344 524 262.5 524 C 407.222656 524 524.5 406.726562 524.5 262 C 524.273438 117.277344 406.996094 0 262.5 0 Z M 434.21875 340.035156 C 434.21875 391.753906 392.027344 433.945312 340.304688 433.945312 L 184.46875 433.945312 C 132.746094 433.945312 90.554688 391.753906 90.554688 340.035156 L 90.554688 183.96875 C 90.554688 132.25 132.746094 90.054688 184.46875 90.054688 L 340.53125 90.054688 C 392.253906 90.054688 434.445312 132.25 434.445312 183.96875 L 434.445312 340.035156 Z M 434.21875 340.035156 " fill-opacity="1" fill-rule="nonzero"/></g></svg>