<svg xmlns="http://www.w3.org/2000/svg" xmlns:xlink="http://www.w3.org/1999/xlink" width="700" zoomAndPan="magnify" viewBox="0 0 525 525.000007" height="700" preserveAspectRatio="xMidYMid meet" version="1.0"><path fill="#ffffff" d="M 230.085938 29.941406 C 118.980469 42.257812 28.445312 131.90625 15.039062 242.835938 C 14.605469 246.320312 14.246094 249.808594 13.964844 253.304688 C 13.679688 256.804688 13.472656 260.308594 13.335938 263.8125 C 13.203125 267.320312 13.144531 270.828125 13.160156 274.335938 C 13.179688 277.847656 13.269531 281.355469 13.4375 284.859375 C 13.605469 288.363281 13.84375 291.863281 14.164062 295.359375 C 14.480469 298.855469 14.871094 302.339844 15.335938 305.820312 C 15.804688 309.296875 16.34375 312.765625 16.960938 316.21875 C 17.574219 319.675781 18.261719 323.113281 19.023438 326.539062 C 19.789062 329.964844 20.621094 333.375 21.53125 336.761719 C 22.4375 340.152344 23.417969 343.523438 24.472656 346.871094 C 25.523438 350.21875 26.648438 353.539062 27.84375 356.839844 C 29.039062 360.140625 30.304688 363.414062 31.640625 366.65625 C 32.976562 369.902344 34.378906 373.117188 35.851562 376.304688 C 37.328125 379.488281 38.867188 382.640625 40.476562 385.757812 C 42.082031 388.878906 43.757812 391.960938 45.5 395.007812 C 47.238281 398.054688 49.042969 401.066406 50.914062 404.035156 C 52.78125 407.003906 54.714844 409.933594 56.710938 412.820312 C 58.703125 415.707031 60.761719 418.550781 62.878906 421.351562 C 64.992188 424.148438 67.167969 426.902344 69.402344 429.609375 C 71.640625 432.3125 73.929688 434.96875 76.277344 437.578125 C 78.628906 440.183594 81.03125 442.742188 83.488281 445.246094 C 85.945312 447.75 88.457031 450.203125 91.019531 452.597656 C 93.582031 454.996094 96.195312 457.335938 98.859375 459.621094 C 101.523438 461.90625 104.234375 464.132812 106.996094 466.300781 C 109.753906 468.472656 112.558594 470.578125 115.40625 472.628906 C 118.253906 474.675781 121.148438 476.664062 124.082031 478.589844 C 127.015625 480.511719 129.992188 482.375 133.003906 484.171875 C 136.019531 485.96875 139.070312 487.699219 142.160156 489.367188 C 145.246094 491.035156 148.371094 492.632812 151.527344 494.167969 C 154.683594 495.699219 157.871094 497.164062 161.089844 498.558594 C 164.3125 499.953125 167.558594 501.28125 170.835938 502.539062 C 174.113281 503.796875 177.414062 504.980469 180.742188 506.097656 C 193.003906 508.054688 196.921875 500.460938 196.921875 493.851562 L 196.921875 452.433594 C 129.058594 467.175781 114.609375 419.621094 114.609375 419.621094 C 103.371094 391.195312 87.414062 383.597656 87.414062 383.597656 C 65.109375 368.40625 89.148438 368.90625 89.148438 368.90625 C 113.640625 370.640625 126.628906 394.144531 126.628906 394.144531 C 147.945312 431.378906 183.949219 420.347656 197.910156 414.46875 C 200.113281 398.546875 206.582031 387.761719 213.347656 381.636719 C 158.871094 375.515625 101.863281 354.441406 101.863281 261.117188 C 101.863281 233.921875 111.175781 212.121094 127.097656 194.726562 C 124.652344 188.601562 116.066406 163.125 129.542969 130.050781 C 129.542969 130.050781 150.128906 123.425781 196.921875 155.042969 C 206.90625 152.355469 217.027344 150.332031 227.277344 148.976562 C 237.527344 147.621094 247.824219 146.941406 258.164062 146.941406 C 268.503906 146.941406 278.800781 147.621094 289.050781 148.976562 C 299.300781 150.332031 309.421875 152.355469 319.40625 155.042969 C 366.234375 123.425781 386.785156 130.050781 386.785156 130.050781 C 400.242188 163.125 391.675781 188.601562 389.230469 194.726562 C 405.152344 212.070312 414.464844 233.921875 414.464844 261.117188 C 414.464844 354.6875 357.128906 375.273438 302.511719 381.394531 C 311.324219 388.992188 319.40625 403.941406 319.40625 426.714844 L 319.40625 493.851562 C 319.40625 500.460938 323.324219 508.300781 335.828125 506.097656 C 339.378906 504.90625 342.902344 503.636719 346.394531 502.285156 C 349.890625 500.933594 353.347656 499.503906 356.777344 497.992188 C 360.203125 496.484375 363.597656 494.894531 366.949219 493.230469 C 370.304688 491.5625 373.621094 489.824219 376.894531 488.003906 C 380.171875 486.1875 383.402344 484.296875 386.589844 482.332031 C 389.777344 480.367188 392.921875 478.328125 396.015625 476.21875 C 399.109375 474.109375 402.15625 471.929688 405.152344 469.683594 C 408.144531 467.433594 411.089844 465.117188 413.976562 462.734375 C 416.867188 460.351562 419.699219 457.902344 422.476562 455.386719 C 425.253906 452.875 427.96875 450.300781 430.628906 447.660156 C 433.289062 445.023438 435.886719 442.328125 438.421875 439.570312 C 440.957031 436.8125 443.425781 434 445.832031 431.128906 C 448.238281 428.257812 450.578125 425.335938 452.851562 422.355469 C 455.125 419.378906 457.324219 416.351562 459.460938 413.273438 C 461.59375 410.195312 463.65625 407.070312 465.644531 403.898438 C 467.636719 400.722656 469.554688 397.507812 471.394531 394.246094 C 473.238281 390.988281 475.007812 387.6875 476.699219 384.34375 C 478.390625 381.003906 480.003906 377.625 481.539062 374.207031 C 483.078125 370.792969 484.535156 367.34375 485.914062 363.863281 C 487.292969 360.378906 488.59375 356.867188 489.808594 353.324219 C 491.027344 349.785156 492.164062 346.214844 493.21875 342.621094 C 494.273438 339.027344 495.246094 335.410156 496.132812 331.773438 C 497.023438 328.132812 497.828125 324.476562 498.550781 320.800781 C 499.269531 317.128906 499.90625 313.4375 500.457031 309.734375 C 501.011719 306.027344 501.476562 302.3125 501.859375 298.585938 C 502.242188 294.863281 502.539062 291.128906 502.75 287.390625 C 502.960938 283.648438 503.085938 279.90625 503.125 276.164062 C 503.164062 272.417969 503.117188 268.671875 502.984375 264.929688 C 502.855469 261.1875 502.636719 257.449219 502.332031 253.714844 C 502.027344 249.980469 501.640625 246.257812 501.167969 242.542969 C 500.691406 238.828125 500.132812 235.125 499.488281 231.433594 C 498.847656 227.746094 498.117188 224.074219 497.304688 220.417969 C 496.496094 216.761719 495.597656 213.125 494.621094 209.507812 C 493.640625 205.894531 492.582031 202.300781 491.4375 198.734375 C 490.292969 195.167969 489.070312 191.628906 487.765625 188.121094 C 486.460938 184.609375 485.074219 181.128906 483.609375 177.683594 C 482.144531 174.234375 480.601562 170.824219 478.980469 167.449219 C 477.359375 164.070312 475.664062 160.734375 473.890625 157.433594 C 472.117188 154.136719 470.265625 150.878906 468.34375 147.667969 C 466.421875 144.453125 464.425781 141.285156 462.355469 138.160156 C 460.289062 135.039062 458.148438 131.964844 455.941406 128.941406 C 453.730469 125.917969 451.453125 122.945312 449.109375 120.023438 C 446.761719 117.105469 444.351562 114.238281 441.875 111.429688 C 439.398438 108.621094 436.859375 105.867188 434.257812 103.175781 C 431.652344 100.480469 428.992188 97.847656 426.265625 95.277344 C 423.542969 92.707031 420.761719 90.199219 417.925781 87.753906 C 415.085938 85.3125 412.195312 82.933594 409.246094 80.621094 C 406.300781 78.308594 403.300781 76.066406 400.25 73.894531 C 397.203125 71.71875 394.101562 69.617188 390.957031 67.585938 C 387.8125 65.550781 384.621094 63.59375 381.382812 61.707031 C 378.148438 59.820312 374.871094 58.011719 371.550781 56.277344 C 368.230469 54.539062 364.875 52.882812 361.480469 51.300781 C 358.085938 49.71875 354.65625 48.214844 351.191406 46.789062 C 347.726562 45.367188 344.234375 44.019531 340.707031 42.757812 C 337.183594 41.492188 333.628906 40.308594 330.050781 39.207031 C 326.46875 38.105469 322.867188 37.085938 319.242188 36.148438 C 315.613281 35.210938 311.96875 34.359375 308.304688 33.589844 C 304.636719 32.820312 300.957031 32.136719 297.257812 31.535156 C 293.5625 30.933594 289.855469 30.417969 286.132812 29.988281 C 282.414062 29.554688 278.683594 29.210938 274.949219 28.949219 C 271.210938 28.691406 267.472656 28.515625 263.726562 28.425781 C 259.984375 28.335938 256.238281 28.335938 252.492188 28.417969 C 248.75 28.5 245.007812 28.667969 241.273438 28.921875 C 237.535156 29.175781 233.804688 29.515625 230.085938 29.941406 Z M 230.085938 29.941406 " fill-opacity="1" fill-rule="nonzero"/></svg>