<svg xmlns="http://www.w3.org/2000/svg" xmlns:xlink="http://www.w3.org/1999/xlink" width="700" zoomAndPan="magnify" viewBox="0 0 525 525.000007" height="700" preserveAspectRatio="xMidYMid meet" version="1.0"><defs><clipPath id="392f0bf7b4"><path d="M 1 0 L 524 0 L 524 524 L 1 524 Z M 1 0 " clip-rule="nonzero"/></clipPath></defs><g clip-path="url(#392f0bf7b4)"><path fill="#ffffff" d="M 480.726562 0 L 44.539062 0 C 20.421875 0 1.023438 19.660156 1.023438 43.515625 L 1.023438 480.488281 C 1.023438 504.605469 20.683594 524.003906 44.539062 524.003906 L 480.460938 524.003906 C 504.578125 524.003906 523.976562 504.34375 523.976562 480.488281 L 523.976562 43.515625 C 524.238281 19.660156 504.839844 0 480.726562 0 Z M 155.941406 432.253906 L 78.613281 432.253906 L 78.613281 200.007812 L 155.941406 200.007812 Z M 117.148438 171.957031 C 92.769531 171.957031 73.109375 152.296875 73.109375 127.921875 C 73.109375 103.542969 92.769531 83.882812 117.148438 83.882812 C 141.527344 83.882812 161.1875 103.542969 161.1875 127.921875 C 161.1875 152.296875 141.527344 171.957031 117.148438 171.957031 Z M 446.910156 432.253906 L 369.320312 432.253906 L 367.484375 294.375 C 367.484375 294.375 369.320312 257.675781 329.210938 257.9375 C 289.105469 258.199219 283.601562 294.375 283.601562 294.375 L 283.601562 432.253906 L 205.484375 432.253906 L 205.484375 200.007812 L 280.457031 200.007812 L 280.457031 231.988281 C 280.457031 231.988281 283.601562 221.5 300.902344 209.179688 C 318.203125 196.859375 346.777344 194.238281 359.09375 194.765625 C 371.414062 195.289062 388.191406 193.191406 416.242188 212.589844 C 446.386719 233.296875 447.171875 287.558594 447.171875 287.558594 Z M 446.910156 432.253906 " fill-opacity="1" fill-rule="nonzero"/></g></svg>