<svg xmlns="http://www.w3.org/2000/svg" xmlns:xlink="http://www.w3.org/1999/xlink" width="700" zoomAndPan="magnify" viewBox="0 0 525 525.000007" height="700" preserveAspectRatio="xMidYMid meet" version="1.0"><defs><clipPath id="4e6a2b2bf1"><path d="M 0.5 0 L 524.5 0 L 524.5 524 L 0.5 524 Z M 0.5 0 " clip-rule="nonzero"/></clipPath></defs><g clip-path="url(#4e6a2b2bf1)"><path fill="#ffffff" d="M 262.386719 21.074219 C 129.476562 21.074219 21.351562 129.203125 21.351562 262.109375 C 21.351562 395.019531 129.476562 503.144531 262.386719 503.144531 C 395.296875 503.144531 503.421875 395.019531 503.421875 262.109375 C 503.421875 129.199219 395.296875 21.074219 262.386719 21.074219 Z M 262.386719 524.109375 C 117.917969 524.109375 0.386719 406.578125 0.386719 262.109375 C 0.386719 117.640625 117.917969 0.109375 262.386719 0.109375 C 406.855469 0.105469 524.386719 117.640625 524.386719 262.109375 C 524.386719 406.578125 406.855469 524.109375 262.386719 524.109375 " fill-opacity="1" fill-rule="nonzero"/></g><path fill="#ffffff" d="M 116.699219 346.558594 L 408.054688 346.558594 L 408.054688 177.667969 L 116.699219 177.667969 Z M 418.546875 367.523438 L 106.226562 367.523438 C 100.4375 367.523438 95.753906 362.84375 95.753906 357.054688 L 95.753906 167.175781 C 95.753906 161.382812 100.4375 156.703125 106.226562 156.703125 L 418.546875 156.703125 C 424.335938 156.703125 429.019531 161.382812 429.019531 167.175781 L 429.019531 357.054688 C 429.019531 362.84375 424.335938 367.523438 418.546875 367.523438 " fill-opacity="1" fill-rule="nonzero"/><path fill="#ffffff" d="M 262.386719 292.058594 C 260.214844 292.058594 258.042969 291.378906 256.191406 290.023438 L 100.03125 175.632812 C 95.347656 172.21875 94.351562 165.660156 97.769531 161 C 101.183594 156.320312 107.742188 155.300781 112.421875 158.738281 L 262.386719 268.582031 L 412.351562 158.738281 C 417.03125 155.300781 423.589844 156.320312 427.003906 161 C 430.421875 165.660156 429.425781 172.21875 424.742188 175.632812 L 268.582031 290.023438 C 266.730469 291.378906 264.558594 292.058594 262.386719 292.058594 " fill-opacity="1" fill-rule="nonzero"/></svg>